<svg version="1.1" xmlns="http://www.w3.org/2000/svg" xmlns:xlink="http://www.w3.org/1999/xlink" width="104.98225" height="149.86419" viewBox="0,0,104.98225,149.86419"><g transform="translate(-193.98831,-127.01097)"><g data-paper-data="{&quot;isPaintingLayer&quot;:true}" stroke="none" stroke-width="1" stroke-linecap="butt" stroke-linejoin="miter" stroke-miterlimit="10" stroke-dasharray="" stroke-dashoffset="0" style="mix-blend-mode: normal"><path d="M223.49228,264.64045c-2.18231,-1.31086 -2.93052,-4.11985 -1.62114,-6.36704l5.98575,-10.04994c1.30938,-2.18477 4.1152,-2.93383 6.29751,-1.62297l7.23278,4.36953c2.18231,1.31086 2.93052,4.11985 1.62114,6.30462l-5.98575,10.04994c-1.30938,2.18477 -4.1152,2.93383 -6.2975,1.62297l-7.23278,-4.30712" fill="#8b4f55" fill-rule="evenodd"/><path d="M248.80701,271.94382v0c-2.0576,0 -3.67874,-1.62297 -3.67874,-3.6829v-13.54557v0c0,-2.05992 1.68349,-3.6829 3.67874,-3.6829h10.84917v0c2.0576,0 3.67874,1.68539 3.67874,3.6829v13.54557v0c0,2.05993 -1.68349,3.6829 -3.67874,3.6829h-10.84917" fill="#8b4f55" fill-rule="evenodd"/><path d="M256.28919,235.05244c5.42458,-0.31211 10.91152,2.12235 11.34798,4.05743c0.43646,1.93508 0.31175,7.1161 0.1247,10.73657c-0.12471,2.24719 -0.3741,4.80649 -0.56116,6.30462c-0.06235,0.81149 -0.74822,1.43571 -1.55879,1.43571c-1.87054,0 -5.86105,0.24969 -9.35273,0.43696c-3.92815,0.24969 -9.53979,0 -11.22328,0v0c-0.2494,0 -0.37411,-0.24969 -0.37411,-0.43696c0,-0.31211 0.06235,-0.81149 0.06235,-1.18601c-0.06235,-3.62047 0,-13.10862 1.37174,-15.6055c2.61876,-4.80649 7.23278,-5.55555 10.1633,-5.74282" fill="#38ae9e" fill-rule="evenodd"/><path d="M240.95072,232.36829c5.17518,1.62297 11.28563,5.1186 11.34798,8.30212c0,1.9975 0,7.05369 -1.62114,10.98627c-0.87292,2.5593 -2.43171,4.74407 -4.48932,6.49189c0,0 -0.37411,0.5618 -3.11758,0.62422c-3.9905,0.12484 -15.52553,-3.87016 -17.95724,-6.49188c-1.24703,-1.37329 -1.62114,-1.68539 -1.37174,-1.93508c0.93527,-1.06117 1.55879,-2.43446 1.8082,-3.80775c0.31176,-1.74782 -0.18705,-3.6829 -0.1247,-4.93133c0.12471,-3.18352 0.31176,-4.80649 0.62351,-5.36829c3.17993,-5.18103 11.78445,-4.86891 14.90202,-3.87016" fill="#38ae9e" fill-rule="evenodd"/><path d="M263.95843,275.8764l-19.45368,-0.5618v-8.61423l19.45368,-0.18727z" fill="#1c7d3b" fill-rule="evenodd"/><path d="M245.19062,267.63671c-0.49881,0 -0.62352,-0.49938 -0.62352,-0.99875v-0.37453c0,-0.49937 0.12471,-0.8739 0.62352,-0.8739h18.1443c0.49881,0 0.87292,0.37453 0.87292,0.8739v0.49937v0c0,0.49937 -0.37411,0.87391 -0.87292,0.87391h-18.1443" fill="#ffffff" fill-rule="evenodd"/><path d="M262.77376,270.13359c0.37411,-0.06242 0.81057,-0.06242 1.18468,0c1.12233,0.24969 2.11995,0.93633 2.68112,1.93508c0.37411,0.99875 0.43646,2.12234 0.24941,3.18352c-0.18705,0.87391 -1.87054,0.62422 -2.1823,0.68664h-0.1247l-4.80107,-0.18727h-0.06236l-0.49881,-0.06242c-0.49881,-0.06242 -0.49881,-0.24969 -0.31176,-0.62422c0.49881,-0.87391 0.87292,-1.74781 1.12233,-2.18477c0.37411,-0.74906 0.99763,-2.30961 2.74347,-2.74657" fill="#ffffff" fill-rule="evenodd"/><path d="M244.94121,276.87516c-0.56116,0 -1.05998,-0.49937 -1.05998,-1.06117v-0.43696c0,-0.5618 0.49881,-1.06117 1.05998,-1.06117h21.19952c0.56117,0 1.05998,0.49937 1.05998,1.06117v0.43696c0,0.5618 -0.49881,1.06117 -1.05998,1.06117h-21.19952" fill="#e9e4e3" fill-rule="evenodd"/><path d="M259.65618,269.82148v0c-0.18705,0 -0.37411,-0.18727 -0.37411,-0.37454v0c0,-0.18727 0.18706,-0.37453 0.37411,-0.37453h3.92815c0.18705,0 0.37411,0.18726 0.37411,0.37453c0,0.18727 -0.18705,0.37454 -0.37411,0.37454h-3.92815" fill="#ffffff" fill-rule="evenodd"/><path d="M259.65618,268.63545v0c-0.18705,0 -0.37411,-0.18726 -0.37411,-0.37453v0c0,-0.18727 0.18706,-0.37453 0.37411,-0.37453h3.92815c0.18705,0 0.37411,0.18727 0.37411,0.37453c0,0.18727 -0.18705,0.37453 -0.37411,0.37453h-3.92815" fill="#ffffff" fill-rule="evenodd"/><path d="M259.28207,266.201c0,0 -1.30938,1.37329 -2.24465,2.37203c-0.24941,0.31211 -0.68587,0.49938 -1.05998,0.5618h-11.47269v-2.80899z" fill="#ffffff" fill-rule="evenodd"/><path d="M238.2696,265.45194c0,0 -0.87292,1.24844 -1.62114,2.43446c-0.43646,0.81149 -0.49882,1.74781 -0.18706,2.62172c0.31176,0.81149 0.49882,1.68539 0.49882,2.5593c-0.12471,1.6854 -1.55879,2.99626 -3.24228,2.93384c-3.30463,0 -2.74347,0.12484 -5.29989,-0.74907c-3.86579,-1.31086 -5.23753,-2.18477 -6.92102,-3.93259c-2.30701,-2.37203 -3.24228,-6.42946 -3.05523,-6.99126c0.18705,-0.5618 3.9905,-6.61673 3.9905,-6.61673c0,0 3.24227,4.43196 7.60688,6.36704c2.93052,1.31086 8.23041,1.31087 8.23041,1.37329" fill="#1c7d3b" fill-rule="evenodd"/><path d="M232.47091,269.07241c1.12233,0.06242 2.24465,0.49937 3.05523,1.31086c1.30938,1.18601 1.49643,1.87266 1.49643,2.62173c0,0.74906 -0.49881,3.87016 -5.48693,2.93383c-4.2399,-0.81149 -5.23753,-1.43571 -6.85867,-2.43446c-1.30938,-0.74906 -2.55642,-1.68539 -3.55404,-2.80899c-1.74585,-1.87266 -2.80582,-5.6804 -2.61876,-6.49189c0.12471,-0.31211 0.31176,-0.62422 0.49882,-0.93633c0.06235,-0.06242 0.1247,-0.12484 0.18705,-0.06242c0.06235,0 0.06235,0.06243 0.06235,0.12484c0.18705,1.4357 0.68587,2.74657 1.43409,3.93258c0.93527,1.4357 2.11995,2.62173 3.49168,3.62047c1.24703,1.06117 0.99763,-1.81024 8.29276,-1.81024" fill="#fcfbfb" fill-rule="evenodd"/><path d="M234.46615,267.94882c-0.81057,-0.06242 -1.62114,-0.12485 -2.36936,-0.18727c-1.43409,-0.18727 -2.80582,-0.81149 -3.92815,-1.81024l-0.06235,-0.06242c-0.12471,-0.12484 -0.18705,-0.37453 -0.06235,-0.49937v0c0.06235,-0.12484 0.31175,-0.18727 0.43646,-0.06243l0.06235,0.06243c0.99762,0.93633 2.30701,1.49812 3.67874,1.68539c1.12233,0.24969 2.30701,0.31211 3.42934,0.12484v0c0.18705,-0.06242 0.31176,0.06242 0.37411,0.24969c0.06235,0.12484 -0.06235,0.31211 -0.2494,0.37453c-0.43646,0.12484 -0.87292,0.12485 -1.30938,0.12485" fill="#ffffff" fill-rule="nonzero"/><path d="M234.09205,268.7603c-0.81057,0 -1.62114,-0.06242 -2.36936,-0.24969c-1.43409,-0.18727 -2.80582,-0.81149 -3.92815,-1.81023l-0.06235,-0.06242c-0.12471,-0.06242 -0.1247,-0.24969 -0.06235,-0.37453c0.06235,-0.18727 0.2494,-0.18726 0.43646,-0.12484l0.06235,0.06243c0.99762,0.93633 2.30701,1.49812 3.67874,1.68539c1.12233,0.24969 2.30701,0.31211 3.42934,0.12484c0.12471,-0.06242 0.31176,0.06242 0.37411,0.24969c0.06235,0.12484 -0.06235,0.31211 -0.24941,0.37453c-0.43646,0.12484 -0.87292,0.12484 -1.30938,0.12484" fill="#ffffff" fill-rule="nonzero"/><path d="M224.98872,265.32709c-1.9329,-1.37329 -3.30463,-3.30837 -3.9905,-5.55556l1.24703,-2.30961c1.9329,2.5593 4.3646,4.61923 7.17042,6.17978c3.7411,2.05993 8.85392,1.81023 8.85392,1.81023l-0.99762,1.56055c0,0 -4.42696,0.18727 -6.42221,-0.68664c-0.99762,-0.43696 -1.99525,-0.99876 -2.86817,-1.6854c-0.43646,-0.37453 -0.56116,-0.24969 -1.12233,0.24968c-0.56116,0.49937 -0.18706,1.62297 -1.87055,0.43696" fill="#ffffff" fill-rule="evenodd"/><path d="M271.12886,202.65543c0,0 1.99525,0.68664 4.48931,7.05369c1.62114,4.18227 1.9329,6.11735 1.9329,8.42696c0,0.49937 -0.06236,0.99875 -0.12471,1.49813c-0.12471,0.5618 -0.37411,0.81149 -0.74822,0.5618c-1.18468,-0.93633 -4.1152,-3.37079 -5.36223,-6.86642c-1.49644,-4.05743 -2.86817,-11.42323 -0.18706,-10.67416" fill="#319785" fill-rule="evenodd"/><path d="M278.48634,209.27216c1.24703,2.99625 -0.1247,6.42946 -3.11757,7.74032l-12.40796,5.24345c-2.99288,1.24844 -6.48456,-0.12485 -7.73159,-3.1211v0c-1.24703,-2.99625 0.1247,-6.49188 3.11758,-7.74032l12.40796,-5.24345c2.99288,-1.24844 6.48456,0.12485 7.73159,3.1211v0" fill="#95545b" fill-rule="evenodd"/><path d="M289.77197,201.7191c1.55879,2.80899 0.62352,6.36704 -2.11995,7.99002l-11.65974,6.74157c-2.80582,1.56055 -6.2975,0.62422 -7.91864,-2.12234c-1.68349,-2.74657 -0.81057,-6.36704 1.99525,-8.05244l11.65973,-6.67915c2.80582,-1.62297 6.42221,-0.68664 8.04335,2.12234v0" fill="#95545b" fill-rule="evenodd"/><path d="M294.57304,190.54557c1.8082,0.49937 1.55879,2.43446 1.24703,3.62047c-0.12471,0.31211 -0.24941,0.62422 -0.43646,0.93633c0.56117,-0.68664 1.37174,-1.06117 2.24466,-0.99875c1.24703,0.18726 1.43409,1.68539 1.30939,2.80899c-0.12471,1.12359 -0.62352,2.18477 -1.49644,2.87141c0.18705,0.37453 0.31176,0.8739 0.31176,1.31086c0.06235,0.62422 -0.12471,1.24844 -0.49881,1.74782c-0.62351,0.5618 -1.37173,0.87391 -2.1823,0.93633c-0.31176,1.24844 -0.93528,2.30961 -1.87055,3.18352c-1.30938,1.18601 -2.93052,2.18477 -6.79631,3.43321c-4.17755,1.37329 -6.73397,-3.49563 -7.04573,-5.49313c-0.49881,-2.87141 1.8082,-5.1186 3.05523,-5.74282c1.24703,-0.62422 3.11757,-2.30961 6.11045,-4.61922c1.99525,-1.49812 3.17993,-2.93383 3.92815,-3.49563c0.56117,-0.5618 1.37173,-0.74907 2.11995,-0.49938" fill="#95545b" fill-rule="evenodd"/><path d="M289.14846,197.97379c-0.18705,0 -0.31176,-0.24969 -0.18705,-0.31211c0.62351,-0.68664 1.30938,-1.31087 2.0576,-1.93509c0.56117,-0.49937 1.24704,-0.87391 1.9329,-1.12359c1.55879,-0.43696 2.55641,-2.05992 2.1823,-3.6829c0,0 0.99763,0.62422 0.74822,2.5593c-0.24941,1.93508 -0.68587,1.74782 -0.68587,1.74782c-0.37411,0.43696 -0.56116,0.93633 -0.49881,1.49813c0.06235,0.18726 0.37411,1.24844 0.99763,0.99875c1.37174,-0.49937 2.74346,-2.99626 2.74346,-2.99626c0.74822,0.5618 0.43647,3.1211 -0.1247,3.93259c-0.24941,0.37453 -0.56117,0.74907 -0.93528,1.12359c0.12471,0.43696 0.24941,0.8739 0.31176,1.31086c0.12471,0.81149 -0.18706,1.62298 -0.87293,2.12235c-0.49881,0.37453 -1.18468,0.62422 -1.8082,0.62422c0,0 0.18706,0.06242 -0.68586,1.74782c-0.93527,1.81024 -4.11521,3.49562 -4.80107,3.74531c-1.37174,0.62422 -2.80582,1.06118 -4.30226,1.37329c0.93527,-0.31211 1.74584,-0.81149 2.36936,-1.56055c0.68586,-0.74907 -0.1247,-1.24844 0.62352,-1.62297c0.74822,-0.37453 1.43408,-0.87391 2.0576,-1.43571c1.30938,-1.18601 1.99525,-3.24594 2.1823,-3.87016c0.12471,-0.43696 0.1247,-0.93633 -0.06235,-1.37328c0.68586,-0.62422 1.18468,-1.4357 1.43408,-2.30961c0.31176,-0.87391 0.68587,-1.74782 0.24941,-2.68415c-0.37411,-0.81149 -1.37174,-0.62422 -1.9329,-0.12485c-0.18705,0.18726 -1.43408,1.31087 -1.80819,1.68539c-0.31176,0.31211 -0.74822,0.49938 -1.18468,0.5618" fill="#80404b" fill-rule="evenodd"/><path d="M277.05226,220.19601l-12.65736,3.49563c-3.86579,0.87391 -8.72922,-1.18602 -10.22566,-5.6804c-1.49643,-4.49438 0.74822,-8.67665 4.80107,-10.67416l11.53503,-4.74407c0,0 -0.37411,3.62047 1.62114,8.98877c2.24466,6.36704 4.92577,8.61423 4.92577,8.61423" fill="#ffffff" fill-rule="evenodd"/><path d="M270.443,202.65543c0.06235,2.99625 0.62351,5.99251 1.68349,8.8015c2.49406,6.49188 4.92577,8.80149 4.92577,8.80149l-2.74347,0.74907c-2.24466,-2.30962 -3.86579,-5.11861 -4.86342,-8.17728c-0.87292,-2.93383 -1.37174,-5.99251 -1.62114,-9.05119z" fill="#38ae9e" fill-rule="evenodd"/><path d="M261.65143,209.02247c0,0 0.68587,1.56055 -4.67637,4.8065c-3.36698,2.05992 -6.73396,2.30961 -11.78444,1.56055c-3.86579,-0.5618 -11.03623,-3.55805 -11.53504,-6.80399c0.06235,-1.31086 0.18706,-2.62172 0.43647,-3.93258c0,0 4.55166,-10.17478 20.82541,-5.24345c1.55879,0.43696 5.29988,5.86766 6.73397,9.61298" fill="#80404b" fill-rule="nonzero"/><path d="M268.6348,241.4819c0,0 -4.42696,4.61923 -34.60511,3.37079c-10.41271,-0.43696 -9.22802,-4.99376 -9.22802,-4.99376z" fill="#319785" fill-rule="evenodd"/><path d="M261.65143,208.89763c0,0 2.43171,3.93258 5.17518,12.29712c2.74347,8.36454 1.74584,20.28715 1.74584,20.28715c-1.74584,1.56055 -15.02672,2.93383 -20.45131,2.68414c-7.91864,-0.49937 -15.77494,-1.37328 -23.56888,-2.68414l2.49407,-34.51935c0,0 7.41983,3.30837 7.79394,3.6829c2.80582,2.68415 8.54216,5.05618 15.65024,5.05618c6.60926,0 11.47269,-6.05493 11.16093,-6.804" fill="#ffffff" fill-rule="evenodd"/><path d="M224.80167,202.90512c0.43646,0 1.30938,2.37203 1.12232,3.995c-0.2494,1.74782 -1.74585,5.61798 -3.42934,7.55306c-2.36936,2.68415 -6.42221,3.87016 -6.42221,3.87016c0,0 -1.24703,0 -1.18468,-1.62297c0.06235,-1.81024 0.99762,-4.99375 2.80582,-8.11486c2.18231,-3.6829 6.67162,-5.6804 7.10808,-5.6804" fill="#319785" fill-rule="evenodd"/><path d="M215.19953,205.71411v0c1.99525,-2.5593 5.67399,-2.99625 8.23041,-0.99875l10.59976,8.30213c2.49406,2.05992 2.86817,5.80524 0.81057,8.30212c-1.99525,2.43445 -5.54929,2.87141 -8.04335,0.93633l-10.53741,-8.30212c-2.61876,-1.9975 -3.05523,-5.68041 -1.05998,-8.23971" fill="#95545b" fill-rule="evenodd"/><path d="M205.03623,197.7241v0c1.99525,-2.5593 5.73634,-2.99625 8.29276,-0.99875l10.53741,8.30212c2.55641,1.9975 2.99287,5.6804 0.99762,8.2397c-1.99525,2.5593 -5.67399,2.99626 -8.2304,0.99875v0l-10.53741,-8.30212c-2.61876,-1.9975 -3.05523,-5.6804 -1.05998,-8.2397" fill="#95545b" fill-rule="evenodd"/><path d="M215.51129,218.1985c9.53978,-5.49313 9.66449,-12.67165 9.29038,-15.29338l11.34798,8.86392c3.17993,3.18352 4.05285,7.80275 1.24703,11.67291c-2.80582,3.87016 -8.04335,4.30712 -11.47268,2.24719l-10.41271,-7.49064" fill="#ffffff" fill-rule="evenodd"/><path d="M227.29573,204.90262c0,0 0.18706,5.61798 -2.49406,9.30087c-2.68112,3.6829 -7.23278,5.49313 -7.23278,5.49313l-2.0576,-1.49813c0,0 4.73872,-2.74657 7.17043,-6.36704c1.62114,-2.62172 2.43171,-5.74282 2.1823,-8.86392z" fill="#38ae9e" fill-rule="evenodd"/><path d="M233.03207,209.83396c0.68587,0.06242 1.37174,0.31211 1.8082,0.81149c0.93527,0.81149 1.9329,1.56054 2.99287,2.18476c2.36936,1.06117 4.92577,1.87266 7.54453,2.37204c2.55641,0.31211 5.11283,0.37453 7.60689,0.18727c0.06235,0 0.06235,0 0.12471,0c0.12471,0.06242 0.18705,0.18727 0.1247,0.31211c-0.74822,1.56055 -3.17993,6.99125 -3.49169,6.92883c-5.23753,-0.5618 -9.04098,-5.55555 -11.28563,-8.11486c-1.62114,-1.74782 -3.49169,-3.18352 -5.61164,-4.2447c-0.06235,0 -0.1247,-0.12484 -0.1247,-0.24968c0.06235,-0.12484 0.18705,-0.18726 0.31175,-0.18726" fill="#38ae9e" fill-rule="evenodd"/><path d="M262.8361,208.96005c0,0 1.74585,2.87141 1.8082,5.1186c0.06235,0.62422 -0.12471,1.18602 -0.49881,1.68539c-0.24941,0.24969 -0.43646,0.5618 -0.74822,0.93633c-1.24703,1.43571 -2.61876,2.74657 -4.05285,3.995v0c-0.12471,0.12484 -0.37411,0.12484 -0.49882,0c-0.24941,-0.24969 -0.68586,-0.68664 -1.12232,-1.12359c-0.68586,-0.62422 -3.30463,-3.24594 -4.05285,-3.995c-0.06235,0 -0.06235,-0.06243 -0.06235,-0.06243c0,-0.12484 0,-0.18726 0.1247,-0.24968c6.1728,-2.49688 7.91865,-5.86767 8.23041,-6.55431c0,-0.06242 0,-0.06242 0.06235,-0.06242c0.31176,-0.12484 0.68586,0 0.81057,0.31211" fill="#38ae9e" fill-rule="evenodd"/><path d="M210.77257,136.9251c-3.05523,-3.87016 -4.17755,-8.11486 -2.49406,-9.48814c1.68349,-1.37328 5.61164,0.68665 8.66687,4.55681c3.05523,3.87016 4.17755,8.11485 2.49406,9.48814c-1.68349,1.37329 -5.61164,-0.68664 -8.66687,-4.5568" fill="#95545b" fill-rule="evenodd"/><path d="M212.64311,143.79151c-4.17756,0.12484 -7.54453,-1.18601 -7.60689,-3.05867c-0.06235,-1.87266 3.30463,-3.37079 7.41983,-3.55805c4.1152,-0.18726 7.54454,1.24845 7.60689,3.05868c0.06235,1.81024 -3.30464,3.4332 -7.41984,3.55805" fill="#95545b" fill-rule="evenodd"/><path d="M216.69596,134.42822c1.68349,-3.80774 4.42696,-6.2422 6.11045,-5.49313c1.68349,0.74907 1.68349,4.49438 -0.06235,8.2397c-1.74585,3.74532 -4.48931,6.2422 -6.11045,5.49313c-1.62114,-0.74907 -1.62114,-4.43196 0.06235,-8.2397" fill="#95545b" fill-rule="evenodd"/><path d="M232.0968,131.86891c6.11045,-0.99875 16.77257,-2.12235 25.93824,0.18727c10.41271,2.68415 16.02434,6.80399 21.07482,14.16979c1.24703,1.81024 3.36699,6.17978 4.86343,10.98627c2.30701,7.42821 1.24703,16.16729 0.62351,20.28714c-0.56117,3.62047 -1.99525,2.12235 0.62351,7.3658c2.1823,4.30712 2.0576,14.60674 -5.7987,19.6005c-4.05285,2.62172 -13.03147,6.17978 -19.64073,6.86642c-6.35986,0.68664 -9.35273,0.68664 -18.39371,0.12484c-13.96675,-0.87391 -25.75119,-5.86766 -29.80404,-9.92509c-1.68349,-1.68539 -9.16568,-8.2397 -11.22328,-16.91636c-1.74585,-7.11611 -2.55641,-14.23221 -0.24941,-23.53308c3.05523,-12.4844 8.72922,-20.16229 21.07483,-25.71785c3.49168,-1.62297 7.17042,-2.80899 10.91152,-3.49563" fill="#95545b" fill-rule="evenodd"/><path d="M261.65143,151.7191c2.74347,-0.37453 2.99287,-3.24595 6.54691,-5.18103c3.30463,-1.9975 5.67399,-1.4357 8.47981,-0.24968c2.80582,1.18601 5.05048,4.30712 6.23516,6.99126c1.24703,2.80899 2.30701,8.30212 2.80582,10.92385c0.68586,3.74532 -0.43646,9.73783 -0.68586,12.29713c-0.24941,2.5593 -1.49644,3.49563 -1.12233,5.24344c0.24941,0.99875 1.74584,2.37204 2.43171,6.74158c0.49881,2.5593 0.24941,5.18103 -0.68586,7.61548c-2.11995,5.1186 -8.41746,9.3633 -11.9715,10.48689c-2.86817,0.93633 -5.73634,1.68539 -8.66686,2.24719c-4.67636,0.74907 -9.35273,0.99875 -14.09145,0.81149c-9.97625,-0.37453 -18.64311,-2.37204 -23.94299,-10.799c-3.17993,-5.1186 -2.43171,-7.36579 -2.86817,-11.92259c-0.43646,-4.5568 -0.49881,-5.55555 -2.68112,-11.04869c-1.62114,-4.11985 -2.11995,-11.61048 -0.43646,-16.66666c2.93052,-8.8015 9.53978,-12.73408 15.08907,-13.42073c5.54928,-0.68664 8.04335,-0.5618 11.90914,0.74906c4.67637,1.62297 4.73872,2.2472 7.79395,4.05743c2.55641,1.43571 3.61639,1.4357 5.86105,1.12359" fill="#f9f0e4" fill-rule="evenodd"/><path d="M209.02672,182.18103c0,0 0.18705,0.99875 0.56116,2.43445c0.74822,2.93383 2.24466,7.55306 4.73872,9.05119c0,0 -1.18468,4.43196 -4.80107,4.86892c-4.17756,0.5618 -6.60926,-2.37204 -7.91864,-4.30712c-2.30701,-3.30837 -1.55879,-9.05119 -0.24941,-10.67416c2.24465,-2.74657 5.42459,-2.55929 7.66924,-1.37328" fill="#faefe5" fill-rule="evenodd"/><path d="M209.65024,184.92759c0.31176,1.24844 0.74821,2.49688 1.18467,3.55805c0.49881,1.24844 1.12233,2.37204 1.8082,3.49563c-0.62351,0.99875 -1.55879,1.74782 -2.61876,2.12234c-1.99525,0.87391 -4.48931,-0.18727 -5.67399,-2.18477c-1.68349,-2.74657 -0.31176,-5.36829 1.37174,-6.61673c1.49643,-1.12359 3.92815,-0.37453 3.92815,-0.37453" fill="#f4b2b2" fill-rule="evenodd"/><path d="M262.33729,185.48939c0,-0.49937 1.05998,-0.93633 2.30701,-0.93633c1.24703,0 2.30701,0.43696 2.30701,0.93633c0,0.49937 -1.05998,0.93633 -2.30701,0.93633c-1.24703,0 -2.30701,-0.43696 -2.30701,-0.93633" fill="#ef8d8d" fill-rule="evenodd"/><path d="M277.55107,186.9251c0,-1.31086 1.74584,-2.24719 3.92815,-2.24719c2.1823,0 3.92815,0.99875 3.92815,2.24719c0,1.24844 -1.74585,2.24719 -3.92815,2.24719c-2.1823,0 -3.92815,-0.99875 -3.92815,-2.24719" fill="#f4b2b2" fill-rule="evenodd"/><path d="M224.80167,189.92135c0,-1.56055 2.80581,-2.80899 6.23515,-2.80899c3.42934,0 6.23516,1.24844 6.23516,2.80899c0,1.56055 -2.80582,2.80899 -6.23516,2.80899c-3.42934,0 -6.23515,-1.24844 -6.23515,-2.80899" fill="#f4b2b2" fill-rule="evenodd"/><path d="M263.83373,192.41823c0,0 -0.68587,2.2472 -1.18468,3.49563c-1.18468,3.24595 -5.23753,4.99375 -8.72921,3.6829c-2.18231,-0.81149 -3.42934,-2.43445 -3.61639,-4.93133c-0.2494,-3.1211 2.36936,-6.49189 2.36936,-6.49189c1.68349,1.74782 11.16092,4.24469 11.16092,4.24469" fill="#e68b8e" fill-rule="evenodd"/><path d="M261.71378,191.79401c-0.81057,0.87391 -1.87054,1.37329 -3.05523,1.49813c-1.87054,0.06242 -2.74347,-0.43696 -3.61639,-1.49813c-0.56116,-0.74907 -0.87292,-1.68539 -0.74821,-2.62172c2.36936,1.06117 4.86341,1.93508 7.41983,2.62172" fill="#ffffff" fill-rule="evenodd"/><path d="M257.97269,195.41448c0.62351,0.74907 1.05998,1.56055 1.37174,2.49688c0.12471,0.37453 0.24941,0.81148 0.31176,1.24844c-0.93527,0.43696 -1.93289,0.68664 -2.93052,0.74907c-0.93527,0.06242 -1.87055,-0.12484 -2.74347,-0.43695c-0.81057,-0.31211 -1.49643,-0.74906 -2.11995,-1.31086c-0.68587,-0.81149 -1.18468,-1.74782 -1.37174,-2.80899c-0.12471,-0.68664 -0.12471,-1.37328 -0.06235,-2.05992c1.05998,-0.31211 2.1823,-0.43696 3.30463,-0.24969c1.55879,0.37453 3.05523,1.18602 4.23991,2.37204" fill="#efb2b5" fill-rule="evenodd"/><path d="M271.31592,157.83646c0,-0.06242 -0.06235,-0.06242 -0.06235,-0.06242c-0.24941,-0.06242 -0.31176,-0.31211 -0.24941,-0.5618c0,-0.06242 0.93527,-1.81024 3.74109,-1.93508c2.80582,-0.12484 3.80345,1.68539 3.86579,1.74782v0c0.12471,0.24969 0.06235,0.49938 -0.18705,0.62422v0c-0.24941,0.12484 -0.49881,0 -0.62351,-0.18726c0,-0.06242 -0.81057,-1.37329 -3.05523,-1.31087c-2.24466,0.06242 -2.99288,1.37329 -2.99288,1.43571c-0.12471,0.12484 -0.2494,0.24969 -0.43646,0.24969" fill="#b67d8a" fill-rule="nonzero"/><path d="M234.46615,159.83396c-0.06235,0.06242 -0.12471,0.06242 0,0c-0.12471,0 -0.1247,0 -0.1247,0c-0.2494,-0.12484 -0.31176,-0.37453 -0.18706,-0.62422c0.2494,-0.49937 0.56116,-0.99875 0.93527,-1.43571c1.87054,-1.9975 4.98812,-2.12234 6.98337,-0.24968c0.12471,0.18726 0.12471,0.37453 0,0.56179c-0.18705,0.18726 -0.43646,0.24969 -0.62351,0.06242c-1.24703,-1.06117 -2.93053,-1.37329 -4.42696,-0.74907c-0.99762,0.43696 -1.68349,1.24844 -2.11995,2.18477c-0.12471,0.12484 -0.24941,0.24969 -0.43646,0.24969" fill="#b67d8a" fill-rule="nonzero"/><path d="M211.45843,185.98877c0.56116,0.5618 0.56117,1.18602 0.56117,2.37204c-0.12471,1.49812 -0.06235,2.99625 0.18705,4.43196c0.2494,1.06117 0.81058,1.31086 1.49644,2.68415c0.62351,1.24844 0.99762,2.62172 1.05998,3.99501c0.12471,1.68539 -1.8082,5.55555 -6.54692,6.67915c-3.9905,0.99875 -5.48693,-2.62172 -6.48456,-2.93383c-0.87292,-0.24969 -1.80819,-0.37453 -2.74347,-0.31211c-1.37174,-0.06242 -2.74347,-0.81149 -3.17993,-1.68539c-0.43646,-0.87391 -0.43646,-2.30962 0.37411,-2.68415c1.68349,-0.74907 2.55641,-0.18726 3.30463,0c0,0 -3.49168,-0.93633 -4.73871,-3.24594c-0.93527,-1.74782 -0.1247,-2.80899 1.05998,-3.1211c1.18468,-0.31211 2.74347,0.31211 3.92815,1.12359l0.68587,0.49937c0.12471,0.12484 0.3741,0.12484 0.49881,0c0.12471,-0.06242 0.12471,-0.24968 0.06235,-0.37453l-0.06235,-0.06242c-1.18468,-0.93633 -2.0576,-2.18476 -2.61876,-3.55805c-0.74822,-2.12234 0.49881,-3.93259 2.68112,-3.49563c1.37174,0.31211 1.99525,0.93633 3.55403,2.74657c0.56116,0.5618 0.99762,1.24844 1.30938,1.93508c0.06235,0.18726 0.24941,0.24969 0.43646,0.18727l0.1247,-0.06243c0.18705,-0.06242 0.31176,-0.18726 0.31176,-0.37453c0,-1.06117 -0.06235,-3.6829 2.1823,-5.11861c0.56116,-0.18726 1.9329,-0.31211 2.55641,0.37454" fill="#95545b" fill-rule="evenodd"/><path d="M204.22566,195.47691c-0.18705,0.99875 -0.1247,1.9975 0.06235,3.1211c0.49881,2.05992 1.43409,3.18352 1.30938,3.24594c-0.56116,-0.5618 -1.05998,-1.12359 -1.55879,-1.68539c-0.49881,-0.68664 -0.74822,-1.18601 -0.68587,-2.80898c0,-0.68664 0.18705,-1.37329 0.62351,-1.93509c0.06235,-0.06242 0.06235,-0.06242 0.12471,-0.06242c0.06235,0 0.1247,0.06242 0.1247,0.12484" fill="#80404b" fill-rule="evenodd"/><path d="M195.74585,198.84769c0,0 -0.18706,0.31211 0.18705,1.31086c0.31176,0.81149 0.93527,1.49813 1.68349,1.87266c0.62351,0.31211 1.24703,0.62422 1.9329,0.87391c0,0 -0.49881,0 -0.87292,0c-0.87292,-0.06242 -1.68349,-0.43696 -2.36936,-0.93633c-0.62351,-0.49937 -0.93527,-1.24844 -0.87292,-1.99751c0,-0.43696 0.12471,-0.81149 0.31176,-1.12359" fill="#80404b" fill-rule="evenodd"/><path d="M194.56117,192.98003c-0.12471,1.06117 0.2494,2.12234 0.93527,2.87141c1.37174,1.24844 2.86818,2.30961 4.55167,3.05867c0.18705,0.06242 -1.6835,-0.56179 -2.55642,-0.99875c-0.87292,-0.43696 -3.05522,-1.37329 -3.49168,-3.18352c-0.06235,-0.68664 0.1247,-1.31086 0.56116,-1.74781" fill="#80404b" fill-rule="evenodd"/><path d="M198.17756,187.67416c0.12471,-0.43696 0.43646,-0.81148 0.81057,-0.93633c0.43646,-0.31211 1.05998,-0.43695 1.62114,-0.31211c1.12233,0.18726 2.11995,0.74906 2.86817,1.62297c0.74822,0.87391 1.49643,1.74782 2.11995,2.74657c0.56116,0.74907 0.87293,0.43696 0.87293,0.24969c0,-0.81149 0.1247,-1.68539 0.31175,-2.49688c0.2494,-1.06117 0.93528,-1.9975 1.87055,-2.62172c0.18705,-0.12484 0.18705,-0.12484 -0.06235,0.24969c-0.62351,0.74907 -0.99762,1.68539 -1.05998,2.68415c-0.2494,0.93633 -0.24941,2.18477 -0.31176,2.87141c0,0.31211 -0.18705,0.62422 -0.56116,0.49938c-0.37411,-0.12484 -0.24941,0.49937 -0.87293,0.18726c-0.62351,-0.31211 -1.80819,-2.68414 -2.61876,-3.55805c-0.93527,-1.06117 -1.37173,-1.68539 -2.74346,-1.93508c-0.81057,-0.12484 -1.62114,0.18726 -2.24465,0.74906" fill="#80404b" fill-rule="evenodd"/><path d="M268.19834,175.81399c0,-5.43071 2.99288,-9.80025 6.73397,-9.80025c3.74109,0 6.79631,4.36954 6.79631,9.80025c0,5.43071 -3.11757,9.80024 -6.79631,9.80024c-3.67874,0 -6.73397,-4.36953 -6.73397,-9.80024" fill="#ffffff" fill-rule="nonzero"/><path d="M231.66034,177.81149v0c0,-6.11736 4.92577,-11.04869 10.97387,-10.98627c6.0481,0 10.97387,4.93133 10.97387,10.98627c0,6.05493 -4.92577,10.98627 -10.97387,10.98627c-6.0481,0 -10.97387,-4.93134 -10.97387,-10.98627" fill="#ffffff" fill-rule="nonzero"/><path d="M268.69715,176.56305c0,-2.68415 1.55878,-4.86891 3.49168,-4.86891c1.9329,0 3.49169,2.18477 3.49169,4.86891c0,2.68415 -1.55879,4.86892 -3.49169,4.86892c-1.9329,0 -3.49168,-2.18477 -3.49168,-4.86892" fill="#95545b" fill-rule="nonzero"/><path d="M236.71081,178.06118v0c0,-3.05867 2.4317,-5.49313 5.42458,-5.49313c3.05523,0 5.48694,2.43446 5.48694,5.43071c0.06235,3.05867 -2.43171,5.49313 -5.42459,5.49313c-3.05523,0.06242 -5.48693,-2.43446 -5.48693,-5.43071" fill="#95545b" fill-rule="nonzero"/><path d="M237.39668,176.62547v0c0,-0.74907 0.62351,-1.37329 1.37174,-1.37329v0c0.74822,0 1.37174,0.62422 1.37174,1.37329c0,0.74907 -0.62351,1.37328 -1.37174,1.37328c-0.74822,0 -1.37174,-0.62421 -1.37174,-1.37328" fill="#ffffff" fill-rule="nonzero"/><path d="M268.7595,174.81523v0c0,-0.62422 0.49881,-1.06118 1.05998,-1.06118v0c0.56117,0 1.05998,0.49938 1.05998,1.06118c0,0.5618 -0.49881,1.06117 -1.05998,1.06117c-0.56117,0 -1.05998,-0.49937 -1.05998,-1.06117" fill="#fcfbfb" fill-rule="nonzero"/><path d="M231.22387,242.48065c0.18705,0 0,3.87016 -0.62351,6.67915c-0.43646,1.87266 -1.30938,3.62048 -2.55641,5.1186l-1.87055,-1.12359c3.55404,-4.18227 2.86818,-10.98627 2.86818,-10.98627z" fill="#ffffff" fill-rule="evenodd"/><path d="M254.3563,252.40575c0,-0.06242 -1.18468,0.24969 -2.36936,0.62422c-1.49643,0.49937 -1.49643,0.93632 -1.87054,1.37328l-1.74585,3.55805c0,0 -2.1823,0.31211 -1.87054,0.06242c1.37174,-1.06117 3.49169,-4.99376 3.67874,-5.24345h0.06235c0.68587,-0.18726 1.37173,-0.31211 2.11995,-0.31211l1.99525,-0.06242" fill="#319785" fill-rule="evenodd"/><path d="M266.39015,252.96754c0.43646,-2.62172 0.37411,-8.2397 0.43646,-10.799c0.37411,-0.12484 0.68587,-0.24969 1.05998,-0.37454c0,0 0.06235,-0.24969 0.06235,0c0,0.24969 0,4.93134 -0.18706,8.86392c-0.18705,2.93383 -0.56116,5.43071 -0.56116,5.43071c-0.06235,0.81149 -0.74822,1.4357 -1.55879,1.4357h-0.99763c0,0 1.37174,0.06242 0.99763,0c-0.37411,-0.06242 0.37411,-2.30961 0.74822,-4.5568" fill="#ffffff" fill-rule="evenodd"/></g></g></svg>